<svg width="190" height="26" viewBox="0 0 190 26" fill="none" xmlns="http://www.w3.org/2000/svg">
<g clip-path="url(#clip0_1315_266)">
<path fill-rule="evenodd" clip-rule="evenodd" d="M13.9175 11.5825H42.0103V0.5H13.9175V11.5825ZM0 25.5H28.0928V14.4175H0V25.5Z" fill="#7B1618"/>
<path fill-rule="evenodd" clip-rule="evenodd" d="M184.021 25.5H189.948V0.5H184.021V25.5ZM71.9071 4.88144H55.6699V6.1701V7.71649V10.2938H71.1339C73.4535 10.2938 75.2576 10.5515 76.0308 11.5825C77.0617 12.3557 77.3194 13.9021 77.3194 16.2216V19.5722C77.3194 21.8918 77.0617 23.4381 76.0308 24.2113C75.2576 24.9845 73.4535 25.5 71.1339 25.5H55.6699C53.3504 25.5 51.5462 24.9845 50.773 24.2113C49.9998 23.4381 49.4844 21.8918 49.4844 19.5722V19.3144H54.639V20.6031H72.1648V14.933H56.7009C54.3813 14.933 52.5772 14.6753 51.804 13.9021C51.0308 12.8711 50.5153 11.3247 50.5153 9.26289V6.42783C50.5153 4.10825 51.0308 2.56186 51.804 1.78866C52.5772 1.01546 54.3813 0.5 56.7009 0.5H70.8761C73.1957 0.5 74.7421 1.01546 75.773 1.78866C76.5462 2.56186 77.0617 3.85052 77.0617 5.91237V6.1701H71.9071V4.88144ZM90.9792 25.5L81.1854 0.5H87.371L93.5566 17.2526L100.258 0.5H104.381L111.082 17.2526L117.01 0.5H122.165L112.629 25.5H108.763L101.804 8.23196L94.8452 25.5H90.9792ZM129.124 15.4485H139.948L134.794 5.39691L129.124 15.4485ZM118.041 25.5L132.216 0.5H137.629L152.062 25.5H145.361L142.526 20.0876H126.804L123.711 25.5H118.041ZM166.237 4.88144V25.5H160.309V4.88144H148.969V0.5H177.835V4.88144H166.237Z" fill="#58595B"/>
</g>
<defs>
<clipPath id="clip0_1315_266">
<rect width="189.948" height="25" fill="white" transform="translate(0 0.5)"/>
</clipPath>
</defs>
</svg>
